# xmcd
#
# Track frame offsets:
#	150
#	13382
#	25607
#	37142
#	48902
#	64355
#	76817
#	87640
#	105745
#	117975
#
# Disc length: 1726 seconds
#
# Revision: 2
# Processed by: cddbd v1.4PL0 Copyright (c) Steve Scherf et al.
# Submitted via: MusicManager 7.0.3.0 
#
DISCID=8306bc0a
DTITLE=Hooker, John Lee  - Trouble Blues
DYEAR=1994
DGENRE=
TTITLE0=Baby Lee
TTITLE1=Frisco Blues
TTITLE2=Boogie Chillun
TTITLE3=Hard Headed Woman
TTITLE4=Tupelo
TTITLE5=Trouble Blues
TTITLE6=Keep Your Hands To Yourself
TTITLE7=Wednesday Evening Blues
TTITLE8=I'm In The Mood
TTITLE9=Good Rockin' Mama
EXTD=Good Blues album!
EXTT0=
EXTT1=
EXTT2=
EXTT3=
EXTT4=
EXTT5=
EXTT6=
EXTT7=
EXTT8=
EXTT9=
PLAYORDER=
